<?xml version="1.0" encoding="utf-8"?>
<!-- Generator: Adobe Illustrator 28.3.0, SVG Export Plug-In . SVG Version: 6.00 Build 0)  -->
<svg version="1.1" id="Calque_1" xmlns="http://www.w3.org/2000/svg" xmlns:xlink="http://www.w3.org/1999/xlink" x="0px" y="0px"
	 viewBox="0 0 200 96.992" style="enable-background:new 0 0 200 96.992;" xml:space="preserve">
<rect x="-752.31" y="-125" style="display:none;" width="842.31" height="595.276"/>
<rect x="-330.945" y="-125" style="display:none;" width="420.945" height="595.276"/>
<g style="display:none;">
</g>
<g>
	<g>
		<path style="fill:#183154;" d="M82.579,82.263H42.793c-1.523,0-2.758-1.235-2.758-2.758s1.235-2.758,2.758-2.758H79.82V30.061
			c0-1.523,1.235-2.758,2.758-2.758s2.758,1.235,2.758,2.758v49.444C85.337,81.028,84.102,82.263,82.579,82.263z"/>
		<path style="fill:#183154;" d="M96.623,32.052c-0.46,0-0.926-0.115-1.355-0.358L49.692,5.927L4.116,31.695
			c-1.326,0.75-3.009,0.283-3.758-1.043c-0.75-1.326-0.283-3.009,1.043-3.758L48.335,0.357c0.842-0.476,1.873-0.476,2.715,0
			l46.934,26.536c1.326,0.75,1.793,2.432,1.043,3.758C98.52,31.548,97.585,32.052,96.623,32.052z"/>
		<path style="fill:#183154;" d="M16.806,54.024c-1.523,0-2.758-1.235-2.758-2.758V30.061c0-1.523,1.235-2.758,2.758-2.758
			s2.758,1.235,2.758,2.758v21.206C19.564,52.789,18.329,54.024,16.806,54.024z"/>
		<path style="fill:#183154;" d="M34.207,82.263H16.806c-1.523,0-2.758-1.235-2.758-2.758V59.804c0-1.523,1.235-2.758,2.758-2.758
			h14.643V30.061c0-0.973,0.513-1.874,1.349-2.371l15.485-9.199c0.858-0.51,1.923-0.516,2.787-0.018l15.945,9.199
			c0.854,0.493,1.38,1.403,1.38,2.389v29.743c0,1.523-1.235,2.758-2.758,2.758H36.965v16.943
			C36.965,81.028,35.731,82.263,34.207,82.263z M19.564,76.747h11.885V62.562H19.564V76.747z M36.965,57.046h25.914V31.654
			l-13.167-7.596L36.965,31.63V57.046z"/>
	</g>
	<g>
		<g>
			<path style="fill:#183154;" d="M119.288,64.201h-3.974L103.358,46.04v18.161h-3.974V39.627h3.974l11.956,18.231V39.627h3.974
				V64.201z"/>
			<path style="fill:#183154;" d="M127.166,39.661c0,1.394-0.331,2.464-0.993,3.207c-0.662,0.744-1.633,1.116-2.911,1.116v-1.673
				c0.581,0,1.011-0.168,1.29-0.506c0.279-0.336,0.418-0.842,0.418-1.516v-0.732h-1.882v-3.381h3.59
				C127.003,37.268,127.166,38.43,127.166,39.661z"/>
			<path style="fill:#183154;" d="M134.451,60.959h11.957v3.242h-16.383v-3.102l11.712-18.265h-11.468v-3.242h15.964v3.102
				L134.451,60.959z"/>
			<path style="fill:#183154;" d="M167.861,40.882c1.847,1.069,3.299,2.562,4.357,4.479c1.057,1.917,1.586,4.084,1.586,6.501
				c0,2.417-0.529,4.584-1.586,6.501c-1.058,1.917-2.51,3.416-4.357,4.497c-1.848,1.08-3.91,1.621-6.187,1.621
				c-2.301,0-4.375-0.54-6.222-1.621c-1.848-1.081-3.306-2.58-4.375-4.497c-1.069-1.917-1.603-4.084-1.603-6.501
				c0-2.417,0.534-4.584,1.603-6.501c1.069-1.917,2.527-3.41,4.375-4.479c1.847-1.069,3.921-1.603,6.222-1.603
				C163.951,39.278,166.014,39.813,167.861,40.882z M157.456,44.053c-1.232,0.721-2.191,1.755-2.876,3.102
				c-0.686,1.348-1.028,2.917-1.028,4.706c0,1.79,0.343,3.358,1.028,4.706c0.685,1.348,1.644,2.382,2.876,3.103
				c1.231,0.72,2.637,1.08,4.218,1.08c1.557,0,2.945-0.36,4.165-1.08s2.173-1.755,2.858-3.103c0.685-1.347,1.028-2.916,1.028-4.706
				c0-1.789-0.343-3.358-1.028-4.706c-0.686-1.347-1.638-2.382-2.858-3.102c-1.22-0.72-2.609-1.08-4.165-1.08
				C160.093,42.973,158.688,43.333,157.456,44.053z"/>
			<path style="fill:#183154;" d="M194.057,40.882c1.847,1.069,3.299,2.562,4.357,4.479c1.057,1.917,1.586,4.084,1.586,6.501
				c0,2.417-0.529,4.584-1.586,6.501c-1.058,1.917-2.51,3.416-4.357,4.497c-1.848,1.08-3.91,1.621-6.187,1.621
				c-2.301,0-4.375-0.54-6.222-1.621c-1.848-1.081-3.306-2.58-4.375-4.497c-1.069-1.917-1.603-4.084-1.603-6.501
				c0-2.417,0.534-4.584,1.603-6.501c1.069-1.917,2.527-3.41,4.375-4.479c1.847-1.069,3.921-1.603,6.222-1.603
				C190.147,39.278,192.209,39.813,194.057,40.882z M183.652,44.053c-1.232,0.721-2.191,1.755-2.876,3.102
				c-0.686,1.348-1.028,2.917-1.028,4.706c0,1.79,0.343,3.358,1.028,4.706c0.685,1.348,1.644,2.382,2.876,3.103
				c1.231,0.72,2.637,1.08,4.218,1.08c1.557,0,2.945-0.36,4.165-1.08s2.173-1.755,2.858-3.103c0.685-1.347,1.028-2.916,1.028-4.706
				c0-1.789-0.343-3.358-1.028-4.706c-0.686-1.347-1.638-2.382-2.858-3.102c-1.22-0.72-2.609-1.08-4.165-1.08
				C186.289,42.973,184.883,43.333,183.652,44.053z"/>
		</g>
		<g>
			<path style="fill:#183154;" d="M101.854,69.76v12.365h-2.469V69.76H101.854z"/>
			<path style="fill:#183154;" d="M117.861,69.901v12.224h-2.452v-8.529l-3.135,8.529h-2.137l-3.135-8.494v8.494h-2.469V69.901
				h2.995l3.713,9.194l3.643-9.194H117.861z"/>
			<path style="fill:#183154;" d="M133.869,69.901v12.224h-2.452v-8.529l-3.135,8.529h-2.137l-3.135-8.494v8.494h-2.469V69.901
				h2.995l3.713,9.194l3.643-9.194H133.869z"/>
			<path style="fill:#183154;" d="M145.489,70.391c0.94,0.537,1.682,1.287,2.224,2.25c0.543,0.963,0.814,2.052,0.814,3.266
				c0,1.215-0.272,2.306-0.814,3.275c-0.543,0.969-1.285,1.723-2.224,2.26c-0.94,0.537-1.988,0.805-3.144,0.805
				c-1.155,0-2.204-0.268-3.143-0.805c-0.94-0.537-1.682-1.29-2.224-2.26c-0.543-0.969-0.814-2.06-0.814-3.275
				c0-1.214,0.271-2.303,0.814-3.266c0.543-0.963,1.284-1.713,2.224-2.25c0.94-0.537,1.988-0.806,3.143-0.806
				C143.501,69.585,144.549,69.854,145.489,70.391z M140.436,72.352c-0.549,0.327-0.978,0.797-1.287,1.41
				c-0.31,0.613-0.464,1.328-0.464,2.146c0,0.817,0.154,1.532,0.464,2.145c0.309,0.613,0.738,1.083,1.287,1.41
				s1.185,0.49,1.909,0.49c0.724,0,1.36-0.163,1.909-0.49c0.548-0.327,0.978-0.797,1.287-1.41c0.309-0.613,0.464-1.328,0.464-2.145
				c0-0.817-0.155-1.532-0.464-2.146c-0.309-0.613-0.739-1.083-1.287-1.41c-0.549-0.326-1.186-0.49-1.909-0.49
				C141.621,71.862,140.985,72.026,140.436,72.352z"/>
			<path style="fill:#183154;" d="M159.518,76.81c0.449,0.555,0.675,1.206,0.675,1.953c0,1.039-0.348,1.859-1.042,2.461
				c-0.695,0.601-1.702,0.902-3.021,0.902h-5.307V69.76h5.202c1.249,0,2.21,0.274,2.881,0.823c0.671,0.549,1.007,1.319,1.007,2.312
				c0,0.77-0.201,1.401-0.604,1.891c-0.403,0.491-0.931,0.812-1.585,0.963C158.47,75.902,159.068,76.255,159.518,76.81z
				 M153.292,74.944h2.224c0.618,0,1.088-0.137,1.41-0.412c0.321-0.274,0.481-0.668,0.481-1.182c0-0.513-0.157-0.911-0.473-1.191
				s-0.8-0.42-1.454-0.42h-2.189V74.944z M157.145,79.682c0.35-0.286,0.526-0.703,0.526-1.252s-0.178-0.972-0.534-1.27
				c-0.356-0.298-0.861-0.446-1.515-0.446h-2.329v3.397h2.347C156.292,80.111,156.794,79.968,157.145,79.682z"/>
			<path style="fill:#183154;" d="M164.833,69.76v12.365h-2.47V69.76H164.833z"/>
			<path style="fill:#183154;" d="M169.982,80.233h4.151v1.892h-6.62V69.76h2.47V80.233z"/>
			<path style="fill:#183154;" d="M178.511,69.76v12.365h-2.47V69.76H178.511z"/>
			<path style="fill:#183154;" d="M183.66,71.722v3.205h4.378v1.892h-4.378v3.328h4.904v1.979h-7.373V69.76h7.373v1.961H183.66z"/>
			<path style="fill:#183154;" d="M197.268,82.125l-2.889-4.816h-1.086v4.816h-2.47V69.76h4.712c1.436,0,2.531,0.35,3.284,1.051
				c0.753,0.7,1.13,1.623,1.13,2.767c0,0.934-0.26,1.716-0.78,2.347c-0.519,0.63-1.269,1.051-2.25,1.261L200,82.125H197.268z
				 M193.292,75.61h2.032c1.412,0,2.119-0.625,2.119-1.874c0-0.596-0.172-1.06-0.517-1.392c-0.344-0.333-0.879-0.499-1.602-0.499
				h-2.032V75.61z"/>
		</g>
	</g>
	<path style="fill:#183154;" d="M197.085,96.992H16.963c-1.61,0-2.915-1.305-2.915-2.915c0-1.61,1.305-2.915,2.915-2.915h180.122
		c1.61,0,2.915,1.305,2.915,2.915C200,95.687,198.695,96.992,197.085,96.992z"/>
</g>
</svg>
